<svg xmlns="http://www.w3.org/2000/svg" width="256" height="240" viewBox="0 0 256 240" xml:space="preserve"><path d="M84.635 20.256c18.383 0 33.286 14.903 33.286 33.286s-14.903 33.286-33.286 33.286-33.286-14.903-33.286-33.286 14.902-33.286 33.286-33.286zM31.002 145.011c0-2.499 1.606-4.194 4.194-4.194s4.194 1.606 4.194 4.194v92.986h91.469v-92.986c0-2.499 1.606-4.194 4.194-4.194 2.499 0 4.194 1.606 4.194 4.194v92.986h29.092V136.623c0-22.934-18.74-41.585-41.585-41.585h-8.388l-24.451 38.015-2.945-28.467 4.016-9.638H76.96l4.016 9.638-3.123 28.645-24.452-38.193h-9.816C20.651 95.038 2 113.778 2 136.623v101.375h29.092v-92.986h-.09zM214 18h23v23h-23V18zm-31 16h21v7h-21v-7zm0-16h21v7h-21v-7zm0 49h54v7h-54v-7zm0-16h54v7h-54v-7zm0 32h54v7h-54v-7zM166 1.755V106h88V2l-88-.245zM246.838 99H173V9h74l-.162 90z" fill="#FF8000"/></svg>