<svg xmlns="http://www.w3.org/2000/svg" data-name="Layer 1" width="500" height="363.652" viewBox="0 0 500 363.652"><path fill="#f2f2f2" d="M308.217 47.14a16.968 16.968 0 0 1-16.968 16.968 16.968 16.968 0 0 1-16.967-16.968 16.968 16.968 0 0 1 33.935 0zm114.654 268.785c25.221-19.21 37.266-51.49 29.725-82.282q-.281-1.148-.594-2.29c-4.999-18.279-17.368-35.65-35.396-41.49-15.137-4.904-31.659-1.133-47.45-3.083-30.998-3.828-55.032-28.91-71.941-55.171-16.91-26.261-29.906-55.656-52.377-77.351-37.038-35.762-97.457-43.461-143.379-20.183-45.921 23.276-75.173 74.921-73.925 126.389 1.247 51.47 31.803 100.679 76.177 126.787 16.301 9.591 35.155 16.386 53.918 14.008 16.281-2.063 31.074-10.811 47.278-13.408 25.476-4.083 50.791 7.436 72.826 20.859 22.036 13.423 43.32 29.333 68.361 35.556 24.314 6.042 54.436-11.325 76.777-28.342Z"/><path d="M386.636 35.154c-.553-.369-1.112-.718-1.665-1.074a241.631 241.631 0 0 0-51.035-24.739l-4.156 57.332h-26.347V.972A218.53 218.53 0 0 0 298.432 0v66.673h-31.31a64.989 64.989 0 0 1-64.988-64.989c-1.678.362-3.343.75-5.007 1.163v63.827h-25.501l-3.959-54.669a242.024 242.024 0 0 0-52.07 27.662c-.28.191-.559.388-.832.578-1.404.985-2.79 1.989-4.169 3.006v218.722h75.157l-1.328-18.397-7.308-101.008h147.168l-7.308 101.008-1.328 18.397h74.325V37.366q-1.659-1.125-3.336-2.211Zm-189.51 90.732h-21.218l-3.921-54.206h25.139Zm101.307 0h-35.637v-1.074a3.927 3.927 0 0 0-3.934-3.927h-15.493a3.926 3.926 0 0 0-3.927 3.927v1.074h-37.308V71.68h96.299Zm5.001 0V71.68h25.984l-3.921 54.206ZM0 275.978a183.653 183.653 0 0 0 17.869 18.397l464.261.635a183.653 183.653 0 0 0 17.869-18.397Z" fill="#3f3d56"/><path d="M314.831 217.071v54.462a2.619 2.619 0 0 0 2.617 2.618h80.707a2.619 2.619 0 0 0 2.618-2.618v-54.462a2.621 2.621 0 0 0-2.618-2.614h-80.706a2.621 2.621 0 0 0-2.618 2.614Z" fill="#3f3d56"/><path d="M316.724 217.749v53.113a1.401 1.401 0 0 0 1.398 1.399h79.361a1.401 1.401 0 0 0 1.399-1.398V217.75a1.402 1.402 0 0 0-1.399-1.402h-79.36a1.402 1.402 0 0 0-1.399 1.402Z" fill="#FF8000"/><path d="M313.143 282.155a1.57 1.57 0 0 0 1.235.591h86.419a1.59 1.59 0 0 0 1.554-1.917l-1.341-6.372a1.593 1.593 0 0 0-.991-1.155 1.541 1.541 0 0 0-.564-.107h-83.741a1.54 1.54 0 0 0-.564.107 1.593 1.593 0 0 0-.99 1.155l-1.341 6.372a1.589 1.589 0 0 0 .324 1.326Z" fill="#2f2e41"/><path fill="#3f3d56" d="M929.895 651.342h-2.042a.31.31 0 0 1-.31-.31v-.977a.31.31 0 0 1 .31-.31h2.042a.31.31 0 0 1 .31.31v.977a.31.31 0 0 1-.31.31zm-11.431 0h-2.041a.31.31 0 0 1-.31-.31v-.977a.31.31 0 0 1 .31-.31h2.041a.31.31 0 0 1 .31.31v.977a.31.31 0 0 1-.31.31zm-11.429 0h-2.041a.31.31 0 0 1-.31-.31v-.977a.31.31 0 0 1 .31-.31h2.041a.31.31 0 0 1 .311.31v.977a.31.31 0 0 1-.311.31zm-11.432 0h-2.042a.31.31 0 0 1-.31-.31v-.977a.31.31 0 0 1 .31-.31h2.042a.31.31 0 0 1 .31.31v.977a.31.31 0 0 1-.31.31zm-11.431 0h-2.041a.31.31 0 0 1-.31-.31v-.977a.31.31 0 0 1 .31-.31h2.041a.31.31 0 0 1 .31.31v.977a.31.31 0 0 1-.31.31zm-11.431 0H870.7a.31.31 0 0 1-.31-.31v-.977a.31.31 0 0 1 .31-.31h2.041a.31.31 0 0 1 .311.31v.977a.31.31 0 0 1-.311.31zm-11.43 0h-2.042a.31.31 0 0 1-.31-.31v-.977a.31.31 0 0 1 .31-.31h2.042a.31.31 0 0 1 .31.31v.977a.31.31 0 0 1-.31.31zm-11.431 0h-2.041a.31.31 0 0 1-.311-.31v-.977a.31.31 0 0 1 .311-.31h2.041a.31.31 0 0 1 .31.31v.977a.31.31 0 0 1-.31.31zm-11.431 0h-2.041a.31.31 0 0 1-.31-.31v-.977a.31.31 0 0 1 .31-.31h2.041a.31.31 0 0 1 .31.31v.977a.31.31 0 0 1-.31.31zm-11.43 0h-2.042a.31.31 0 0 1-.31-.31v-.977a.31.31 0 0 1 .31-.31h2.042a.31.31 0 0 1 .31.31v.977a.31.31 0 0 1-.31.31zm-11.431 0h-2.041a.31.31 0 0 1-.311-.31v-.977a.31.31 0 0 1 .311-.31h2.041a.31.31 0 0 1 .31.31v.977a.31.31 0 0 1-.31.31zm-11.431 0h-2.041a.31.31 0 0 1-.31-.31v-.977a.31.31 0 0 1 .31-.31h2.041a.31.31 0 0 1 .31.31v.977a.31.31 0 0 1-.31.31zm-11.429 0h-2.041a.31.31 0 0 1-.31-.31v-.977a.31.31 0 0 1 .31-.31h2.041a.31.31 0 0 1 .311.31v.977a.31.31 0 0 1-.311.31zm-11.432 0h-2.041a.31.31 0 0 1-.311-.31v-.977a.31.31 0 0 1 .311-.31h2.041a.31.31 0 0 1 .31.31v.977a.31.31 0 0 1-.31.31zm-11.431 0h-2.041a.31.31 0 0 1-.31-.31v-.977a.31.31 0 0 1 .31-.31h2.041a.31.31 0 0 1 .31.31v.977a.31.31 0 0 1-.31.31zm-11.431 0h-2.041a.31.31 0 0 1-.31-.31v-.977a.31.31 0 0 1 .31-.31h2.041a.31.31 0 0 1 .311.31v.977a.31.31 0 0 1-.311.31zm171.596 5.714h-2.041a.31.31 0 0 1-.311-.31v-.977a.31.31 0 0 1 .311-.31h2.041a.31.31 0 0 1 .31.31v.977a.31.31 0 0 1-.31.31zm-11.431 0h-2.041a.31.31 0 0 1-.31-.31v-.977a.31.31 0 0 1 .31-.31h2.041a.31.31 0 0 1 .31.31v.977a.31.31 0 0 1-.31.31zm-11.431 0h-2.041a.31.31 0 0 1-.31-.31v-.977a.31.31 0 0 1 .31-.31h2.041a.31.31 0 0 1 .311.31v.977a.31.31 0 0 1-.311.31zm-11.43 0h-2.041a.31.31 0 0 1-.311-.31v-.977a.31.31 0 0 1 .311-.31h2.041a.31.31 0 0 1 .31.31v.977a.31.31 0 0 1-.31.31zm-11.431 0h-2.041a.31.31 0 0 1-.31-.31v-.977a.31.31 0 0 1 .31-.31h2.041a.31.31 0 0 1 .31.31v.977a.31.31 0 0 1-.31.31zm-11.431 0h-2.041a.31.31 0 0 1-.31-.31v-.977a.31.31 0 0 1 .31-.31h2.041a.31.31 0 0 1 .311.31v.977a.31.31 0 0 1-.311.31zm-11.43 0h-2.042a.31.31 0 0 1-.31-.31v-.977a.31.31 0 0 1 .31-.31h2.042a.31.31 0 0 1 .31.31v.977a.31.31 0 0 1-.31.31zm-11.431 0h-2.041a.31.31 0 0 1-.31-.31v-.977a.31.31 0 0 1 .31-.31h2.041a.31.31 0 0 1 .31.31v.977a.31.31 0 0 1-.31.31zm-11.431 0h-2.041a.31.31 0 0 1-.31-.31v-.977a.31.31 0 0 1 .31-.31h2.041a.31.31 0 0 1 .311.31v.977a.31.31 0 0 1-.311.31zm-11.428 0h-2.042a.31.31 0 0 1-.31-.31v-.977a.31.31 0 0 1 .31-.31h2.042a.31.31 0 0 1 .31.31v.977a.31.31 0 0 1-.31.31zm-11.433 0h-2.041a.31.31 0 0 1-.31-.31v-.977a.31.31 0 0 1 .31-.31h2.041a.31.31 0 0 1 .31.31v.977a.31.31 0 0 1-.31.31zm-11.431 0h-2.041a.31.31 0 0 1-.31-.31v-.977a.31.31 0 0 1 .31-.31h2.041a.31.31 0 0 1 .31.31v.977a.31.31 0 0 1-.31.31zm-11.43 0h-2.042a.31.31 0 0 1-.31-.31v-.977a.31.31 0 0 1 .31-.31h2.042a.31.31 0 0 1 .31.31v.977a.31.31 0 0 1-.31.31zm-11.431 0h-2.041a.31.31 0 0 1-.311-.31v-.977a.31.31 0 0 1 .311-.31h2.041a.31.31 0 0 1 .31.31v.977a.31.31 0 0 1-.31.31zm-11.431 0h-2.041a.31.31 0 0 1-.31-.31v-.977a.31.31 0 0 1 .31-.31H770a.31.31 0 0 1 .31.31v.977a.31.31 0 0 1-.31.31zm-11.43 0h-2.042a.31.31 0 0 1-.31-.31v-.977a.31.31 0 0 1 .31-.31h2.042a.31.31 0 0 1 .31.31v.977a.31.31 0 0 1-.31.31zm105.905 6.858h-20.672a.31.31 0 0 1-.311-.31v-.977a.31.31 0 0 1 .311-.31h20.672a.31.31 0 0 1 .311.31v.977a.31.31 0 0 1-.311.31z"/><path fill="#fff" d="M328.66 227.966h1.807a.992.992 0 0 1 .992.992.992.992 0 0 1-.992.992h-1.807a.992.992 0 0 1-.992-.992.992.992 0 0 1 .992-.992zm20.667 0h1.807a.992.992 0 0 1 .992.992.992.992 0 0 1-.992.992h-1.807a.992.992 0 0 1-.992-.992.992.992 0 0 1 .992-.992zm5.856 0h1.807a.992.992 0 0 1 .992.992.992.992 0 0 1-.992.992h-1.807a.992.992 0 0 1-.992-.992.992.992 0 0 1 .992-.992zm-20.902-.165h11.232a.992.992 0 0 1 .992.992.992.992 0 0 1-.992.992h-11.232a.992.992 0 0 1-.992-.992.992.992 0 0 1 .992-.992zm27.557 0h11.231a.992.992 0 0 1 .992.992.992.992 0 0 1-.992.992h-11.231a.992.992 0 0 1-.992-.992.992.992 0 0 1 .992-.992zm-27.667 4.643h1.807a.992.992 0 0 1 .992.992.992.992 0 0 1-.992.992h-1.807a.992.992 0 0 1-.992-.992.992.992 0 0 1 .992-.992zm20.667 0h1.808a.992.992 0 0 1 .992.992.992.992 0 0 1-.992.992h-1.808a.992.992 0 0 1-.992-.992.992.992 0 0 1 .992-.992zm5.856 0h1.807a.992.992 0 0 1 .992.992.992.992 0 0 1-.992.992h-1.807a.992.992 0 0 1-.992-.992.992.992 0 0 1 .992-.992zm-20.901-.165h11.231a.992.992 0 0 1 .992.992.992.992 0 0 1-.992.992h-11.231a.992.992 0 0 1-.992-.992.992.992 0 0 1 .992-.992zm27.556 0h11.231a.992.992 0 0 1 .992.992.992.992 0 0 1-.992.992h-11.231a.992.992 0 0 1-.992-.992.992.992 0 0 1 .992-.992zm-27.667 4.643h1.807a.992.992 0 0 1 .992.992.992.992 0 0 1-.992.992h-1.807a.992.992 0 0 1-.992-.992.992.992 0 0 1 .992-.992zm20.668 0h1.807a.992.992 0 0 1 .992.992.992.992 0 0 1-.992.992h-1.807a.992.992 0 0 1-.992-.992.992.992 0 0 1 .992-.992zm5.856 0h1.807a.992.992 0 0 1 .992.992.992.992 0 0 1-.992.992h-1.807a.992.992 0 0 1-.993-.992.992.992 0 0 1 .993-.992zm-20.902-.165h11.231a.992.992 0 0 1 .992.992.992.992 0 0 1-.992.992h-11.231a.992.992 0 0 1-.992-.992.992.992 0 0 1 .992-.992zm27.556 0h11.232a.992.992 0 0 1 .992.992.992.992 0 0 1-.992.992H372.86a.992.992 0 0 1-.992-.992.992.992 0 0 1 .992-.992zm-27.666 4.643h1.807a.992.992 0 0 1 .992.992.992.992 0 0 1-.992.992h-1.807a.992.992 0 0 1-.992-.992.992.992 0 0 1 .992-.992zm20.667 0h1.807a.992.992 0 0 1 .992.992.992.992 0 0 1-.992.992h-1.807a.992.992 0 0 1-.992-.992.992.992 0 0 1 .992-.992zm5.856 0h1.807a.992.992 0 0 1 .992.992.992.992 0 0 1-.992.992h-1.807a.992.992 0 0 1-.992-.992.992.992 0 0 1 .992-.992zm-20.902-.165h11.232a.992.992 0 0 1 .992.992.992.992 0 0 1-.992.992h-11.232a.992.992 0 0 1-.992-.992.992.992 0 0 1 .992-.992zm-1.488 17.971h1.807a.992.992 0 0 1 .992.992.992.992 0 0 1-.992.992h-1.807a.992.992 0 0 1-.992-.992.992.992 0 0 1 .992-.992zm5.856 0h1.807a.992.992 0 0 1 .992.992.992.992 0 0 1-.992.992h-1.807a.992.992 0 0 1-.992-.992.992.992 0 0 1 .992-.992zm6.655.166h11.231a.992.992 0 0 1 .992.992.992.992 0 0 1-.992.992h-11.231a.992.992 0 0 1-.992-.992.992.992 0 0 1 .992-.992zm-33.178-.166h1.807a.992.992 0 0 1 .992.992.992.992 0 0 1-.992.992h-1.807a.992.992 0 0 1-.992-.992.992.992 0 0 1 .992-.992zm5.621.166h11.232a.992.992 0 0 1 .992.992.992.992 0 0 1-.992.992h-11.232a.992.992 0 0 1-.992-.992.992.992 0 0 1 .992-.992zm-.11-4.644h1.807a.992.992 0 0 1 .992.992.992.992 0 0 1-.992.992h-1.807a.992.992 0 0 1-.992-.992.992.992 0 0 1 .992-.992zm20.667 0h1.808a.992.992 0 0 1 .992.992.992.992 0 0 1-.992.992h-1.808a.992.992 0 0 1-.992-.992.992.992 0 0 1 .992-.992zm5.856 0h1.807a.992.992 0 0 1 .992.992.992.992 0 0 1-.992.992h-1.807a.992.992 0 0 1-.992-.992.992.992 0 0 1 .992-.992zm-20.901.166h11.231a.992.992 0 0 1 .992.992.992.992 0 0 1-.992.992h-11.231a.992.992 0 0 1-.992-.992.992.992 0 0 1 .992-.992zm-.111-4.643h1.807a.992.992 0 0 1 .992.992.992.992 0 0 1-.992.992h-1.807a.992.992 0 0 1-.992-.992.992.992 0 0 1 .992-.992zm20.668 0h1.807a.992.992 0 0 1 .992.992.992.992 0 0 1-.992.992h-1.807a.992.992 0 0 1-.992-.992.992.992 0 0 1 .992-.992zm5.856 0h1.807a.992.992 0 0 1 .992.992.992.992 0 0 1-.992.992h-1.807a.992.992 0 0 1-.993-.992.992.992 0 0 1 .993-.992zm-20.902.165h11.231a.992.992 0 0 1 .992.992.992.992 0 0 1-.992.992h-11.231a.992.992 0 0 1-.992-.992.992.992 0 0 1 .992-.992zm-.11-4.643h1.807a.992.992 0 0 1 .992.992.992.992 0 0 1-.992.992h-1.807a.992.992 0 0 1-.992-.992.992.992 0 0 1 .992-.992zm20.667 0h1.807a.992.992 0 0 1 .992.992.992.992 0 0 1-.992.992h-1.807a.992.992 0 0 1-.992-.992.992.992 0 0 1 .992-.992zm5.856 0h1.807a.992.992 0 0 1 .992.992.992.992 0 0 1-.992.992h-1.807a.992.992 0 0 1-.992-.992.992.992 0 0 1 .992-.992zm-20.902.165h11.232a.992.992 0 0 1 .992.992.992.992 0 0 1-.992.992h-11.232a.992.992 0 0 1-.992-.992.992.992 0 0 1 .992-.992z"/><path d="m320.859 311.686-8.484-13.41 26.628-21.227 10.99-12.176a12.176 12.176 0 0 1 20.601 4.338 12.176 12.176 0 0 1-7.352 15.246l-17.379 6.402Z" fill="#ffb6b6"/><path d="M121.813 214.458v65.174h45.658v-65.174a2.191 2.191 0 0 0-1.544-2.097 2.018 2.018 0 0 0-.655-.102h-41.255a2.201 2.201 0 0 0-2.205 2.199Zm17.819 22.394a4.874 4.874 0 0 1 9.748 0v7.562a4.874 4.874 0 0 1-9.748 0Z" fill="#2f2e41"/><path d="M121.673 277.548v6.285a1.237 1.237 0 0 0 1.226 1.233h43.485a1.233 1.233 0 0 0 1.226-1.233v-6.285ZM49.986 116.265v118.998a5.724 5.724 0 0 0 5.719 5.719h176.343a5.724 5.724 0 0 0 5.719-5.719V116.265a5.726 5.726 0 0 0-5.719-5.713H55.705a5.727 5.727 0 0 0-5.719 5.713Z" fill="#3f3d56"/><path d="M54.123 117.746v116.049a3.062 3.062 0 0 0 3.057 3.057h173.401a3.062 3.062 0 0 0 3.057-3.057V117.746a3.063 3.063 0 0 0-3.057-3.063H57.18a3.063 3.063 0 0 0-3.057 3.063Z" fill="#fff"/><path d="M86.303 284.639a1.873 1.873 0 0 0 1.474.705h103.162a1.898 1.898 0 0 0 1.856-2.288l-1.601-7.607a1.902 1.902 0 0 0-1.182-1.379 1.84 1.84 0 0 0-.674-.127H89.372a1.839 1.839 0 0 0-.674.127 1.901 1.901 0 0 0-1.182 1.379l-1.601 7.607a1.897 1.897 0 0 0 .388 1.582Z" fill="#2f2e41"/><path d="M224.952 130.67H62.702a.646.646 0 0 1 0-1.291h162.25a.646.646 0 0 1 0 1.29Zm-147.424-8.45a3.781 3.866 0 0 1-3.781 3.865 3.781 3.866 0 0 1-3.781-3.865 3.781 3.866 0 0 1 7.562 0zm13.063 0a3.781 3.866 0 0 1-3.781 3.865 3.781 3.866 0 0 1-3.782-3.865 3.781 3.866 0 0 1 7.563 0zm13.063 0a3.781 3.866 0 0 1-3.781 3.865 3.781 3.866 0 0 1-3.782-3.865 3.781 3.866 0 0 1 7.563 0zm113.433-2.911h-9.278a.702.702 0 0 0 0 1.404h9.278a.702.702 0 0 0 0-1.404Zm0 2.638h-9.278a.702.702 0 0 0 0 1.404h9.278a.702.702 0 0 0 0-1.404Zm0 2.637h-9.278a.702.702 0 0 0 0 1.404h9.278a.702.702 0 0 0 0-1.404Z" fill="#3f3d56"/><path d="M440.759 280.306a4.077 4.077 0 0 0 3.929 2.752l16.835-.433a4.022 4.022 0 0 0 3.8-2.959l2.383-25.474a6.224 6.224 0 0 0 2.692.553 6.139 6.139 0 1 0-.308-12.275 5.201 5.201 0 0 0-1.103.115 4.161 4.161 0 0 0-3.097-1.336l-25.895.669a3.719 3.719 0 0 0-.639.079 4.045 4.045 0 0 0-3.097 5.252Zm27.435-27.844 1.695-6.07a4.134 4.134 0 0 0 .013-2.145c.083 0 .155-.039.237-.039a4.391 4.391 0 0 1 .206 8.78 4.134 4.134 0 0 1-2.151-.526Z" fill="#2f2e41"/><path d="M439.355 241.996c.552 3.154 6.755 5.372 14.213 4.987 6.859-.316 12.467-2.724 13.494-5.578a3.829 3.829 0 0 0-1.172-.156l-25.895.669a3.719 3.719 0 0 0-.639.079Z" fill="#3f3d56"/><path d="M454.935 266.308a.316.316 0 0 0 .096-.042l3.656-2.393a.318.318 0 0 0 0-.531l-3.8-2.489a.318.318 0 1 0-.348.531l3.393 2.223-3.249 2.128a.318.318 0 0 0 .252.574Zm-5.774.266a.318.318 0 0 0 .08-.583l-3.37-1.932 3.257-2.42a.318.318 0 1 0-.379-.51l-3.646 2.709a.318.318 0 0 0 .031.53l3.791 2.173a.318.318 0 0 0 .236.032Zm5.411 1.831a.306.306 0 0 0 .087-.037.318.318 0 0 0 .107-.437l-5.183-8.52a.318.318 0 0 0-.543.33l5.182 8.521a.318.318 0 0 0 .35.142Zm-319.44-102.657h28.082a2.074 2.074 0 0 1 2.074 2.074v2.743a2.074 2.074 0 0 1-2.074 2.075h-28.082a2.074 2.074 0 0 1-2.075-2.075v-2.743a2.074 2.074 0 0 1 2.075-2.074z" fill="#FF8000"/><path fill="#e6e6e6" d="M118.763 179.532h60.819a2.074 2.074 0 0 1 2.075 2.074v2.744a2.074 2.074 0 0 1-2.075 2.074h-60.819a2.074 2.074 0 0 1-2.074-2.074v-2.744a2.074 2.074 0 0 1 2.074-2.074zm0 13.784h60.819a2.074 2.074 0 0 1 2.075 2.074v2.744a2.074 2.074 0 0 1-2.075 2.074h-60.819a2.074 2.074 0 0 1-2.074-2.074v-2.744a2.074 2.074 0 0 1 2.074-2.074z"/><path d="m184.738 239.474.138.435.007.015 4.147 12.606 4.77 14.527 8.974 27.3.087 4.241v.015l.667 34.115-1.849 4.625 2.081 7.583s-.957-11.462-6.089-4.88c-2.907 3.741-6.307 7.568-9.098 11.157q6.101 2.469 12.396 4.465c.906.29 1.819.566 2.733.841l.588.173a169.583 169.583 0 0 0 42.799 6.88c.754.022 1.493.036 2.211.051.254.008.5.015.747.015.812.007 1.617.015 2.428.015q2.458 0 4.893-.072a169.577 169.577 0 0 0 35.645-4.821c-.079-4.821-.297-10.453-.609-16.471-.145-2.95-3.4-6.147-3.595-9.235-.138-2.319 2.783-4.502 2.631-6.858-.985-14.505-2.218-8.937-3.131-19.209q-.142-1.512-.261-2.893c-.587-6.597-.993-10.722-.993-10.722l3.9-24.582 6.126-38.595-.472-.775-.529-.261-32.31-15.992-1.755-4.494a6.977 6.977 0 0 0-6.444-4.415l-21.284-.086a6.946 6.946 0 0 0-5.662 2.877l-5.763 7.981Z" fill="#3f3d56"/><path d="m207.682 288.283-4.821 10.316-3.291 7.046-5.661 29.642-2.834 3.008-2.429-10.65-25.418 5.644c-.834-4.633-.223.156-.737-4.925.144-.145.297-.29.449-.435.407-.377.747-.732.74-1.073-.29-17.529.58-47.359 7.844-65.432a38.162 38.162 0 0 1 4.465-8.329c.145-.196.283-.391.421-.587 3.349-4.69 5.466-9.308 8.467-12.592v-.008a.337.337 0 0 0 .051-.051.1.1 0 0 0 .029-.022l20.617-10.932.885 24.851.63 17.862Zm74.34 2.93 6.022 12.884 2.102 4.487 5.66 29.64 2.825 3.001 2.434-10.648 1.144-.234 20.627-4.272 6.012 19.093a11.428 11.428 0 0 0-2.072-14.302c-.411-.371-.753-.733-.743-1.075.343-20.617-.919-58.262-12.307-73.756-3.617-4.917-5.787-9.814-8.945-13.236-.01-.01-.01-.02-.019-.02l-7.684-12.581-.469-.773-.527-.264Z" fill="#3f3d56"/><path data-name="Ellipse 5" fill="#ffb6b6" d="M273.859 169.798a28.315 28.315 0 0 1-28.316 28.315 28.315 28.315 0 0 1-28.315-28.315 28.315 28.315 0 0 1 56.631 0z"/><path d="M283.815 150.02a2.389 2.389 0 0 0-1.709-.756l.426-1.182a2.242 2.242 0 0 0-2.516-2.987l-1.551.299.146-1.036a2.246 2.246 0 0 0-3.006-2.427 2.393 2.393 0 0 1-2.059-.146 2.444 2.444 0 0 1-1.22-1.659l-.54-2.605-.057-.14c-2.631-4.385-7.689-7.575-13.879-8.744-5.51-1.049-11.159-.515-16.605-.013-2.161.203-4.601.432-6.634 1.678-1.728 1.068-3.19 3.203-2.891 5.357-5.37-1.646-11.127 1.64-13.98 5.783-3.381 4.931-3.934 11.108-4.023 15.938-.241 11.426 2.116 20.773 6.99 27.789.356.508.445 1.57 1.15 1.925l-.146-.235c.788.394 1.589 1.029 1.29 1.709-.858 1.957 4.842 6.285 8.858 7.715 7.327 2.612 17.069 2.389 23.919 1.449l.241-1.62c2.472-.337 4.213-.979 4.702-1.983a56.31 56.31 0 0 0 2.243-2.008l.006-.006c.013-.013.038-.032.051-.044 3.095-2.968 3.813-4.658 4.137-7.232.311-2.523-.241-5.084-.807-7.391 11.909 1.843-4.69-12.684 6.406-15.493a3.453 3.453 0 0 1 .388-.095c.324-.076.648-.153.96-.241a16.807 16.807 0 0 0 4.27-1.824c3.101-1.887 4.124-4.391 5.726-7.213a2.178 2.178 0 0 0-.286-2.561Zm61.875 143.209a211.991 211.991 0 0 1-.07 4.594l-.019.82c-.083 3.54-.165 6.507-.299 9.805-.006.229-.013.451-.025.68-.178 4.601-.458 9.958-.94 18.441-.896 15.671-2.459 2.154-4.029 7.651-.076.273-.159.597-.235.979a17.74 17.74 0 0 1-1.195 4.023c-.832.496-1.69.972-2.536 1.449a177.263 177.263 0 0 1-11.496 5.865c-.222.102-.438.203-.655.299a172.14 172.14 0 0 1-22.083 8.426 151.21 151.21 0 0 1-4.429 1.277 143.49 143.49 0 0 1-4.671 1.22 169.602 169.602 0 0 1-35.643 4.823c-1.62.051-3.254.07-4.893.07-.813 0-1.614-.006-2.427-.013-.248 0-.496-.006-.743-.013-.718-.019-1.462-.032-2.211-.051a169.456 169.456 0 0 1-42.799-6.882l-.591-.172c-.915-.28-1.824-.553-2.733-.845q-6.291-1.992-12.398-4.461-4.661-1.878-9.214-4.029a.215.215 0 0 1-.076-.038 84.792 84.792 0 0 1-1.913-.909 10.498 10.498 0 0 0-.261-.133q-3.555-1.735-7.035-3.635c-1.951-4.48-4.696-5.338-6.399-9.278a16.442 16.442 0 0 1-1.068-3.648c0-.013-.006-.025-.006-.044.178 2.364-.756-4.194-.006-.025a33.045 33.045 0 0 0-.102-1.112c-2.18-21.282-2.04-45.62-2.987-65.676q-.095-1.945-.197-3.724a58.245 58.245 0 0 0-.07-1.163c.044-.114.095-.235.153-.35a.637.637 0 0 1 .044-.095 1.031 1.031 0 0 1 .064-.114l.044-.064a.583.583 0 0 1 .032-.064c.057-.089.121-.184.191-.273.032-.038.057-.07.089-.102a.513.513 0 0 1 .076-.089.405.405 0 0 1 .07-.083c.025-.025.051-.057.083-.089a.192.192 0 0 1 .051-.051 1.292 1.292 0 0 1 .165-.159 6.116 6.116 0 0 1 .724-.572c.089-.057.184-.114.273-.178a12.16 12.16 0 0 1 2.014-.966c.241-.089.483-.172.743-.261.095-.025.184-.057.28-.089.14-.044.28-.089.426-.121a27.33 27.33 0 0 1 2.351-.572c.102-.019.21-.038.318-.064.153-.032.311-.057.47-.083l.661-.114c1.887-.299 4.029-.521 6.393-.667l.667-.038.788-.038c.222-.013.451-.019.68-.025.222-.013.451-.019.686-.025.642-.019 1.303-.038 1.976-.051 1.919-.038 3.94-.025 6.062.019.985.025 1.989.051 3.018.095.07 0 .133.006.197.006.896.032 1.798.07 2.726.121.648.032 1.303.064 1.957.102.616.038 1.239.076 1.868.121.489.025.979.064 1.474.095.419.032.839.064 1.258.089l.572.038c.311.025.623.044.94.076l2.11.172c.705.064 1.423.127 2.142.191s1.443.133 2.167.203l.216.019c.661.07 1.322.133 1.989.203.153.013.311.025.464.044.636.064 1.285.139 1.927.207l.591.064c.503.055.998.102 1.505.162.667.076 1.347.146 2.008.235.515.057 1.029.114 1.544.178.807.095 1.627.197 2.447.305.311.038.623.076.934.121 2.339.292 4.702.616 7.105.953 3.641.515 7.34 1.074 11.064 1.678q5.595.906 11.254 1.913c.953.172 1.906.343 2.866.521l1.296.248c.737.133 1.474.273 2.211.413.737.14 1.474.28 2.211.426l2.637.515a616.876 616.876 0 0 1 17.126 3.641c.921.21 1.843.426 2.758.635q2.745.639 5.44 1.296c.496.114.985.235 1.474.356 1.22.305 2.44.61 3.641.921l.21.057c.883.216 1.748.438 2.612.667q3.06.801 6.018 1.62 1.964.543 3.883 1.099a301.2 301.2 0 0 1 5.611 1.678 236.104 236.104 0 0 1 8.261 2.669q1.468.505 2.879 1.01c.604.216 1.201.445 1.798.661.858.318 1.703.635 2.529.953.254.095.502.197.75.292.159.07.311.127.464.191.299.121.604.235.896.356.299.114.591.235.883.362.286.114.578.235.858.356.286.114.566.235.845.362.235.095.464.197.686.299.451.197.902.394 1.341.597.216.102.432.197.648.299l.496.229c.07.038.14.07.21.102.159.076.324.159.483.235.369.172.731.356 1.087.527.477.241.94.483 1.385.718.451.241.89.483 1.309.718.07.038.133.076.203.114.095.051.191.108.286.159.324.184.635.375.947.559.61.375 1.188.743 1.728 1.112.121.083.235.165.356.241.4.286.782.566 1.137.852 0 .006 0 .006.006.006.121.089.235.184.35.273.095.089.197.165.292.254.33.286.635.559.915.839a3.601 3.601 0 0 1 .267.273.768.768 0 0 1 .102.102c.127.127.241.254.35.381a.351.351 0 0 1 .044.057c.153.178.292.356.426.534.064.089.133.178.191.267.076.108.153.222.216.33.057.089.108.184.159.273a4.612 4.612 0 0 1 .343.718 3.33 3.33 0 0 1 .172.521 3.714 3.714 0 0 1 .108.515Z" fill="#2f2e41"/><path d="M345.69 293.229a211.991 211.991 0 0 1-.07 4.594c-.006.267-.019.54-.025.82a856.296 856.296 0 0 1-.317 10.485c-.178 4.601-.458 9.958-.94 18.441-.896 15.671-2.459 2.154-4.029 7.651a443.458 443.458 0 0 0-14.247-8.375q-1.382-.782-2.79-1.57c-10.218-5.7-21.631-11.674-33.546-17.59-.47-.235-.947-.47-1.417-.699-27.293-13.491-57.084-26.613-81.219-35.37a373.948 373.948 0 0 0-13.288-4.556c-8.808-2.815-16.421-4.785-22.28-5.637-6.101-.89-10.314-.572-12.017 1.265q-.095-1.945-.197-3.724l-.076-1.163c.039-.105.09-.205.14-.305a.583.583 0 0 1 .019-.044.637.637 0 0 1 .044-.095 1.031 1.031 0 0 1 .064-.114.674.674 0 0 1 .076-.127c.057-.089.121-.184.191-.273a2.213 2.213 0 0 1 .165-.191.405.405 0 0 1 .07-.083c.025-.025.051-.057.083-.089a.192.192 0 0 1 .051-.051 1.292 1.292 0 0 1 .165-.159 6.116 6.116 0 0 1 .724-.572c.089-.057.184-.114.273-.178a12.16 12.16 0 0 1 2.014-.966c.241-.089.483-.172.743-.261.095-.025.184-.057.28-.089.14-.044.28-.089.426-.121a27.33 27.33 0 0 1 2.351-.572c.254-.051.521-.102.788-.146l.661-.114c1.887-.299 4.029-.521 6.393-.667l.667-.038.788-.038c.222-.013.451-.019.68-.025.222-.013.451-.019.686-.025.642-.019 1.303-.038 1.976-.051 1.919-.032 3.94-.019 6.062.025.985.019 1.989.051 3.018.095.064 0 .133.006.197.006.896.025 1.805.07 2.726.114.648.032 1.303.064 1.957.102.616.038 1.239.076 1.868.121.489.025.979.064 1.474.095.419.032.839.064 1.258.089l1.512.114 2.11.172c.705.064 1.423.127 2.142.191s1.443.133 2.167.203l.216.019c.661.07 1.322.133 1.989.203q5.548.562 11.419 1.315 3.508.448 7.105.96a607.61 607.61 0 0 1 11.064 1.671q5.595.906 11.254 1.913c.953.172 1.906.343 2.866.521q1.754.324 3.508.661c.737.14 1.474.28 2.211.426l2.637.515a616.876 616.876 0 0 1 17.126 3.641c.921.21 1.843.426 2.758.635q2.745.639 5.44 1.296l1.474.362q1.84.458 3.641.915v.006a241.929 241.929 0 0 1 2.822.725q3.06.801 6.018 1.614c1.309.369 2.605.731 3.883 1.099a448.592 448.592 0 0 1 6.958 2.091q2.002.629 3.927 1.252c1.017.33 2.008.667 2.987 1.004q1.468.505 2.879 1.01c.61.216 1.207.438 1.798.655.864.318 1.703.635 2.529.96.254.095.502.197.75.292.464.178.915.362 1.36.547.299.114.591.235.883.362.286.114.578.235.858.356.286.114.566.235.845.362.235.095.464.197.686.299.451.197.902.394 1.341.597.216.102.432.197.648.299l.496.229c.07.038.14.07.21.102.54.254 1.061.508 1.57.763.477.241.94.483 1.385.718.527.28 1.029.553 1.512.832.095.051.191.108.286.159.324.184.635.375.947.559.61.375 1.188.743 1.728 1.112.534.369 1.029.731 1.493 1.093 0 .006 0 .006.006.006.222.178.438.356.642.527.33.286.635.559.915.839a3.601 3.601 0 0 1 .267.273.768.768 0 0 1 .102.102c.133.146.267.292.394.438.153.178.292.356.426.534.064.089.133.178.191.267.076.108.153.222.216.33.057.089.108.184.159.273a4.612 4.612 0 0 1 .343.718 3.846 3.846 0 0 1 .172.521 3.714 3.714 0 0 1 .108.515Z" opacity=".2"/></svg>